<svg width="16" height="18" viewBox="0 0 16 18" fill="none" xmlns="http://www.w3.org/2000/svg">
<path fill-rule="evenodd" clip-rule="evenodd" d="M1.07923 15.3708C-0.359743 15.3708 -0.359743 13.2809 1.07923 13.2809C2.24411 13.2809 2.31263 9.23596 2.31263 7.82022C2.31263 4.44944 4.36831 2.49438 6.69807 2.02247C6.28694 1.07865 6.97216 0 8 0C9.02784 0 9.71306 1.07865 9.30193 2.02247C11.6317 2.49438 13.6874 4.44944 13.6874 7.82022C13.6874 9.23596 13.7559 13.2809 14.9208 13.2809C16.3597 13.2809 16.3597 15.3708 14.9208 15.3708H1.07923Z" fill="#E4E4E7"/>
<path fill-rule="evenodd" clip-rule="evenodd" d="M9.2334 15.8427C9.78158 16.7865 9.09636 18 8 18C6.90364 18 6.21842 16.7865 6.7666 15.8427H9.2334Z" fill="#E4E4E7"/>
</svg>
