<svg width="24" height="24" viewBox="0 0 16 14" fill="none" xmlns="http://www.w3.org/2000/svg">
<path d="M10.4051 9.34507C10.4051 9.34507 10.4998 9.55129 10.8802 9.58251C11.2593 9.61435 12.7776 9.3769 13.0313 9.67782C13.0313 9.67782 13.8691 10.3269 13.8379 10.737C13.8379 10.737 14.5648 11.4802 14.4865 11.9553C14.4079 12.4301 14.3436 12.9523 14.0591 13.3947C14.0591 13.3947 14.0275 12.3669 14.0119 11.9709C14.0119 11.9709 13.6 11.259 13.5058 10.9118C13.5058 10.9118 13.0463 10.5314 12.9196 10.1207C12.9196 10.1207 11.6229 10.2946 10.8167 9.99434C10.0093 9.69405 10.0093 9.69405 10.0093 9.69405C10.0093 9.69405 9.85135 9.93107 9.99369 10.0424C10.1367 10.1525 11.291 10.6746 11.291 10.8642C11.291 11.0542 11.3544 11.1177 11.3544 11.1177C11.3544 11.1177 11.7654 11.8296 11.6864 12.2249C11.6864 12.2249 11.6545 12.9366 11.4019 13.3643C11.1495 13.7913 10.2318 14.0606 10.1839 13.9649C10.1364 13.8704 10.8484 13.4432 10.9266 13.2686C11.0057 13.0952 11.0533 12.447 11.1012 12.1463C11.1012 12.1463 10.943 11.5445 10.9582 11.2922C10.9582 11.2922 9.70901 10.5495 9.37626 9.97894C9.37626 9.97894 8.92156 10.3976 8.03215 10.3595V10.3747C7.09861 10.4382 6.62436 9.99537 6.62436 9.99537C6.29244 10.5637 5.04259 11.3079 5.04259 11.3079C5.0582 11.5609 4.90005 12.1617 4.90005 12.1617C4.9477 12.4624 4.99536 13.1108 5.07402 13.2848C5.15268 13.4577 5.86438 13.8858 5.81735 13.9809C5.7699 14.076 4.85281 13.8069 4.59934 13.3793C4.34609 12.9527 4.31466 12.2408 4.31466 12.2408C4.236 11.845 4.64721 11.1339 4.64721 11.1339C4.64721 11.1339 4.71047 11.0704 4.71047 10.8802C4.71047 10.6906 5.86438 10.1679 6.00755 10.0572C6.1501 9.94668 5.99173 9.70965 5.99173 9.70965C5.99173 9.70965 5.99173 9.70965 5.18514 10.0099C4.37876 10.3102 3.08168 10.1361 3.08168 10.1361C2.95515 10.547 2.49629 10.9272 2.49629 10.9272C2.40182 11.275 1.98999 11.9863 1.98999 11.9863C1.97438 12.3821 1.94233 13.4099 1.94233 13.4099C1.65786 12.9672 1.59439 12.4455 1.51531 11.9709C1.43603 11.4964 2.16354 10.7529 2.16354 10.7529C2.13191 10.3417 2.97013 9.69342 2.97013 9.69342C3.22339 9.39314 4.74189 9.63037 5.12105 9.59832C5.50124 9.56669 5.59572 9.3613 5.59572 9.3613C5.2792 9.3767 5.21636 9.18733 5.21636 9.18733C3.98233 9.51966 3.39736 8.88662 3.39736 8.88662C2.84361 9.02959 2.7329 8.77654 2.36914 9.02959C2.35479 9.03937 2.33959 9.04915 2.32378 9.05872C1.93505 9.29096 1.08788 9.37815 1.08788 9.37815C1.08788 9.66283 0.518311 10.5327 0.518311 10.5327C0.518311 10.5327 0.533502 9.58375 0.834621 9.14071C1.13553 8.69829 2.32149 8.60319 2.32149 8.60319C2.60596 8.31914 3.60296 8.58758 3.60296 8.58758C3.93488 8.58758 4.15672 8.79319 4.75729 8.95134C5.3587 9.10908 5.13728 8.76218 5.13728 8.76218C4.42516 8.77758 3.5551 8.20864 3.5551 8.20864C3.1285 8.14537 2.55851 7.67008 2.55851 7.67008C2.14731 7.67008 1.27725 7.13235 1.0242 6.86369C0.770943 6.59462 0.707473 5.51937 0.707473 5.51937C0.818181 5.51937 1.27704 6.70533 1.38796 6.72198C1.49867 6.73717 2.84319 7.27469 2.84319 7.27469C3.19093 7.27469 3.68142 7.89233 3.87079 7.89233C4.06099 7.89233 4.69361 8.36658 4.69361 8.36658C4.80411 8.28813 4.7885 8.23985 4.7885 8.23985C4.06099 8.12914 4.01354 7.27573 4.01354 7.27573C1.19796 6.21567 2.93788 5.1244 2.93788 5.1244C2.29048 3.46148 4.17295 1.92779 4.17295 1.92779C4.80557 -0.365673 7.05158 0.0453227 7.05158 0.0453227C5.47003 0.915177 5.20054 2.40225 5.16953 2.5602C5.13811 2.71815 5.34392 2.81346 5.47003 2.65468C5.59635 2.49673 5.865 2.8607 5.865 2.59204C5.865 2.32276 6.21357 2.52857 6.21357 2.33878C6.21357 2.149 6.57753 2.33878 6.59293 2.06971C6.60896 1.80106 6.7669 2.18021 6.82996 1.83206C6.89343 1.48433 7.16208 1.65809 7.17831 1.53178C7.19351 1.40525 7.41555 1.31036 7.41555 1.31036C7.98491 2.48092 5.23196 4.11012 5.23196 4.11012C4.90005 4.64764 4.21956 5.13855 4.21956 5.13855C4.5675 5.40741 4.45679 5.69209 4.26742 6.05606C4.07743 6.41982 4.59934 6.68826 4.59934 6.68826C4.82118 6.68826 4.96331 6.76734 4.96331 6.76734C4.868 5.9133 5.27941 6.1189 5.27941 6.1189C5.37451 5.37557 5.72266 5.61281 5.72266 5.61281C5.72266 5.48607 6.03856 5.09069 6.24437 5.04345C6.45018 4.99621 6.40252 5.2014 6.40252 5.2014C6.57628 5.01223 7.03493 4.90152 7.03493 4.90152V4.69571C7.38288 4.64785 7.36706 4.88529 7.36706 4.88529C7.52709 4.58979 7.83737 4.61976 7.96868 4.64764C7.9718 4.6466 8.42753 4.49074 8.63272 4.86948C8.63272 4.86948 8.61649 4.63224 8.96464 4.67948V4.8855C8.96464 4.8855 9.42308 4.99663 9.59768 5.186C9.59768 5.186 9.55002 4.97998 9.75562 5.02722C9.96122 5.07529 10.2771 5.47047 10.2771 5.59678C10.2771 5.59678 10.6255 5.35955 10.7202 6.10267C10.7202 6.10267 11.1316 5.89686 11.0367 6.75153C11.0367 6.75153 11.1788 6.67286 11.4004 6.67286C11.4004 6.67286 11.9221 6.40379 11.7332 6.03983C11.543 5.67586 11.4325 5.39139 11.7802 5.12253C11.7802 5.12253 11.1002 4.63224 10.7689 4.09431C10.7689 4.09431 8.01591 2.46468 8.58506 1.29433C8.58506 1.29433 8.8069 1.38944 8.82251 1.51617C8.83811 1.64269 9.10739 1.46872 9.17024 1.81625C9.23371 2.1646 9.39166 1.78482 9.40789 2.05348C9.4235 2.32193 9.78705 2.13297 9.78705 2.32193C9.78705 2.51213 10.135 2.30674 10.135 2.57518C10.135 2.84467 10.4043 2.48071 10.5298 2.63886C10.6565 2.7966 10.8625 2.70212 10.8307 2.54334C10.799 2.3854 10.5298 0.898529 8.9482 0.0286748C8.9482 0.0286748 11.1946 -0.382737 11.8272 1.91114C11.8272 1.91114 13.7091 3.44546 13.0607 5.10629C13.0607 5.10629 14.8006 6.19736 11.9854 7.25721C11.9854 7.25721 11.9377 8.11125 11.21 8.22154C11.21 8.22154 11.1946 8.26919 11.3051 8.34765C11.3051 8.34765 11.9375 7.87339 12.1282 7.87339C12.3175 7.87339 12.8072 7.25658 13.1558 7.25658C13.1558 7.25658 14.5003 6.71865 14.6102 6.70283C14.7213 6.68722 15.1804 5.50064 15.2909 5.50064C15.2909 5.50064 15.2274 6.5761 14.9743 6.84475C14.7215 7.11403 13.8518 7.65239 13.4402 7.65239C13.4402 7.65239 12.8702 8.12665 12.4436 8.18991C12.4436 8.18991 11.5732 8.75864 10.8613 8.74324C10.8613 8.74324 10.64 9.09118 11.2417 8.93324C11.8429 8.77425 12.0639 8.56906 12.3958 8.56906C12.3958 8.56906 13.393 8.29999 13.6773 8.58446C13.6773 8.58446 14.863 8.67956 15.1641 9.1224C15.4667 9.56711 15.4819 10.5158 15.4819 10.5158C15.4819 10.5158 14.9129 9.64598 14.9129 9.3613C14.9129 9.3613 14.0651 9.27348 13.6773 9.04228C13.6612 9.03188 13.646 9.02251 13.6313 9.01252C13.2677 8.75947 13.157 9.01252 12.6033 8.86956C12.6033 8.86956 12.0181 9.5026 10.7845 9.16964C10.7847 9.17109 10.7216 9.3613 10.4051 9.34507Z" fill="#E4E4E7"/>
</svg>
