<svg width="24" height="24" viewBox="0 0 24 24" fill="none" xmlns="http://www.w3.org/2000/svg">
<path d="M20.4578 4.82014C19.9691 4.33122 19.3889 3.94338 18.7503 3.67876C18.1117 3.41415 17.4272 3.27795 16.7359 3.27795C16.0446 3.27795 15.3601 3.41415 14.7215 3.67876C14.0829 3.94338 13.5026 4.33122 13.0139 4.82014L11.9997 5.83434L10.9855 4.82014C9.99842 3.83302 8.6596 3.27847 7.26361 3.27847C5.86761 3.27847 4.52879 3.83302 3.54168 4.82014C2.55456 5.80726 2 7.14608 2 8.54207C2 9.93807 2.55456 11.2769 3.54168 12.264L11.9997 20.7221L20.4578 12.264C20.9467 11.7753 21.3346 11.1951 21.5992 10.5565C21.8638 9.91785 22 9.23335 22 8.54207C22 7.8508 21.8638 7.1663 21.5992 6.52768C21.3346 5.88906 20.9467 5.30883 20.4578 4.82014Z" stroke="#E4E4E7" stroke-width="2" stroke-linecap="round" stroke-linejoin="round"/>
</svg>
