<svg width="24" height="24" viewBox="0 0 15 15" fill="none" xmlns="http://www.w3.org/2000/svg">
<path d="M10.7806 10.313C11.9434 10.313 12.8902 9.36627 12.8902 8.20344V3.57874L12.9983 3.44964C13.8022 2.47909 14.3158 1.50854 14.5218 0.570988C14.5777 0.318283 14.4166 0.0692341 14.1629 0.0133768C13.9102 -0.0424758 13.6594 0.118674 13.6053 0.372289C13.4158 1.23938 12.8994 2.15592 12.0698 3.09343C11.9947 3.18041 11.9526 3.29028 11.9526 3.4029V8.20527C11.9526 8.85261 11.428 9.37726 10.7806 9.37726C10.1333 9.37726 9.60863 8.85261 9.60863 8.20527V4.92368C9.60863 4.78085 9.54088 4.64259 9.42826 4.55378C9.3138 4.46496 9.16364 4.43383 9.02537 4.46954C8.44212 4.6197 7.95684 4.69021 7.49904 4.69021C7.04215 4.69021 6.5587 4.6197 5.97544 4.46954C5.83444 4.43475 5.68519 4.46496 5.57256 4.55378C5.45811 4.6426 5.39218 4.78085 5.39218 4.92368V7.03327C5.39218 7.68061 4.86753 8.20527 4.22019 8.20527C3.57285 8.20527 3.04819 7.68061 3.04819 7.03327V3.4029C3.04819 3.28845 3.00607 3.17766 2.93099 3.09343C2.10143 2.15309 1.58594 1.23654 1.39549 0.369476C1.36711 0.247698 1.29477 0.142402 1.18947 0.0737345C1.08418 0.0059791 0.959653 -0.0150815 0.835133 0.0105571C0.582428 0.0664097 0.422193 0.315463 0.478964 0.568169C0.68498 1.50851 1.1959 2.47632 2.00256 3.44682L2.1106 3.57592V7.02862C2.1106 8.19145 3.05736 9.13821 4.22019 9.13821C5.38302 9.13821 6.32978 8.19145 6.32978 7.02862V5.52608L6.84987 5.58468C7.29302 5.63595 7.70782 5.63595 8.15097 5.58468L8.6738 5.52608V8.20057C8.6738 9.3634 9.62056 10.3102 10.7834 10.3102L10.7806 10.313Z" fill="#E4E4E7"/>
<path d="M3.98306 10.5821C3.69006 10.5821 3.42544 10.7085 3.24965 10.9264C2.49242 11.8759 2.10786 12.6166 2.10786 13.1248C2.10786 14.1586 2.94931 15 3.98306 15C5.0168 15 5.85825 14.1586 5.85825 13.1248C5.85825 12.6157 5.47369 11.8759 4.71647 10.9264C4.54342 10.7085 4.27606 10.5821 3.98306 10.5821ZM3.98306 14.0634C3.46482 14.0634 3.04546 13.644 3.04546 13.1258C3.04546 12.9079 3.33572 12.3237 3.97115 11.5226H3.99038C4.63223 12.3292 4.92066 12.9107 4.92066 13.1258C4.92066 13.644 4.50129 14.0634 3.98306 14.0634Z" fill="#E4E4E7"/>
</svg>
