<svg width="14" height="14" viewBox="0 0 14 14" fill="none" xmlns="http://www.w3.org/2000/svg">
<path d="M13.6756 3.6319C13.6494 3.05307 13.5838 2.54175 13.481 2.10278V2.10156C13.3095 1.48018 13.1423 0.912317 12.6079 0.518931C11.4941 -0.124939 9.805 -0.21067 8.64682 0.494611C7.21681 1.27042 6.49748 2.93144 5.40685 4.08184C5.00618 4.51899 4.43953 4.97985 4.0115 5.22001C3.39194 5.58786 2.98154 5.59941 2.40692 6.07426C0.693543 7.38085 -0.343075 9.88453 0.803586 11.9159C1.98737 14.3418 4.67176 14.6678 6.59292 12.7999C7.21004 12.2126 7.5566 11.3912 7.97794 10.6305C8.43212 9.75316 9.04438 8.97067 9.92354 8.48489C11.6691 7.36556 13.7794 5.99141 13.6761 3.63053L13.6756 3.6319ZM10.8162 5.0157C10.6234 4.63813 10.4058 4.25083 10.1595 3.86537C10.3881 3.64041 10.6344 3.42457 10.8812 3.21784C11.1268 3.56075 11.3822 3.93224 11.5883 4.25023C11.3603 4.50924 11.0928 4.78648 10.8162 5.0157ZM7.77557 7.15711C7.6947 7.0501 7.61506 6.94188 7.5354 6.83487C7.76218 6.61295 7.98837 6.35942 8.22366 6.08217C8.35134 6.22566 8.47781 6.37219 8.59941 6.51994C8.26502 6.74004 7.97925 6.94795 7.77557 7.15711ZM6.66232 8.68441C6.47628 8.42845 6.28354 8.16761 6.08898 7.90678C6.41973 7.66966 6.73711 7.47632 7.0326 7.26594C7.13717 7.407 7.24358 7.55048 7.3518 7.6964C7.11772 8.0156 6.8885 8.35487 6.66293 8.68441H6.66232ZM2.01358 12.1792C2.38567 11.7773 2.77176 11.373 3.14264 10.9693C3.30376 11.1942 3.45697 11.4271 3.60107 11.6666C3.12682 11.9032 2.61306 12.1269 2.13762 12.3239C2.09566 12.2777 2.05371 12.2297 2.01358 12.1786L2.01358 12.1792ZM1.61291 11.5657V11.5645C1.79349 11.0161 2.00082 10.4002 2.23247 9.8438C2.40514 10.0341 2.57416 10.2311 2.73893 10.436C2.37899 10.8288 2.00082 11.2246 1.63845 11.6137C1.62933 11.5979 1.62143 11.5821 1.61292 11.5651L1.61291 11.5657ZM3.32193 8.13226C3.53959 8.42168 3.74266 8.71291 3.9354 9.00414V9.00536C3.68916 9.31908 3.4721 9.61274 3.18513 9.93561C2.98145 9.68328 2.76257 9.43339 2.52971 9.18837C2.76379 8.72385 2.97172 8.44782 3.32193 8.13226ZM7.38217 5.1944C7.51228 5.32452 7.643 5.45706 7.77189 5.59386C7.55179 5.8553 7.34204 6.09424 7.13654 6.30158C7.01007 6.13316 6.88361 5.96779 6.76018 5.80484C6.96811 5.65588 7.16815 5.45038 7.38217 5.1944ZM12.1792 1.30444L12.1811 1.30688C11.7725 1.62365 11.3743 1.94528 10.9918 2.26204C10.8848 2.11977 10.7784 1.97932 10.6702 1.84252C11.1317 1.61209 11.6278 1.44976 12.1786 1.30505L12.1792 1.30444ZM10.4891 2.68521C10.2483 2.88768 10.0075 3.09622 9.78379 3.31266C9.65368 3.13087 9.51565 2.95151 9.37096 2.77459C9.59471 2.55571 9.84946 2.34291 10.0993 2.1757C10.2295 2.34108 10.3602 2.51193 10.4897 2.6852L10.4891 2.68521ZM9.30772 3.79481C8.90036 4.22833 8.53617 4.66791 8.19934 5.07831C8.06618 4.94029 7.9312 4.8041 7.79806 4.67034C8.15312 4.20096 8.49848 3.73097 8.90887 3.2616C9.04932 3.43609 9.18186 3.61423 9.30772 3.79481ZM6.6368 6.7375C6.34557 6.94604 6.02272 7.14183 5.69197 7.38016C5.53875 7.1783 5.38492 6.97888 5.23536 6.78371C5.56125 6.58367 5.89138 6.38122 6.2118 6.1751C6.3486 6.35629 6.49088 6.54415 6.6368 6.73689V6.7375ZM5.16544 7.7784C4.9119 7.98208 4.64925 8.21798 4.39023 8.48733C4.21634 8.22771 4.03151 7.9681 3.83513 7.7103C4.09718 7.51331 4.38111 7.323 4.67356 7.13635C4.8353 7.34612 5.00067 7.56074 5.16544 7.7784ZM3.5962 10.4669C3.86007 10.1696 4.09902 9.8808 4.30816 9.59747C4.5544 10.0048 4.77571 10.4079 4.97575 10.7952C4.73437 11.0159 4.49665 11.1691 4.18353 11.3552C4.006 11.0567 3.8096 10.7606 3.5962 10.4669ZM4.75991 9.05635C5.02621 8.76815 5.2992 8.52009 5.5637 8.30486C5.80508 8.62649 6.04098 8.94752 6.26533 9.25699C6.00631 9.62544 5.74123 9.98112 5.46763 10.2936C5.25726 9.89115 5.02136 9.47526 4.75991 9.05635ZM8.65112 5.5664C8.9679 5.18092 9.30654 4.76992 9.68108 4.36074C9.90421 4.71946 10.1012 5.08061 10.2751 5.43203C9.90785 5.69469 9.52361 5.93667 9.16367 6.16163C8.99829 5.95917 8.82562 5.75975 8.65112 5.5658V5.5664ZM11.3846 2.79337C11.7664 2.4766 12.1404 2.17503 12.5039 1.8911C12.5593 2.04553 12.6128 2.23279 12.6584 2.45836C12.4754 2.94354 12.279 3.33327 12.0169 3.70779C11.8151 3.4038 11.6029 3.09676 11.3846 2.79337ZM10.6337 0.87999C10.7997 0.887894 10.9627 0.90735 11.125 0.93775C10.824 1.04354 10.5334 1.16697 10.2507 1.31654C10.1437 1.18521 10.0361 1.0557 9.92966 0.932271C10.1674 0.883631 10.4021 0.869655 10.6337 0.87999ZM9.26209 1.16332C9.4001 1.32018 9.54116 1.48616 9.68342 1.66005C9.42868 1.83455 9.16359 2.05342 8.93558 2.279C8.76778 2.09965 8.59207 1.92637 8.40724 1.75855C8.69908 1.49346 8.98362 1.30012 9.26209 1.16332ZM7.26061 3.13818C7.49468 2.78797 7.72269 2.48823 7.94826 2.23287C8.13309 2.40067 8.3088 2.57638 8.476 2.75757C8.04311 3.24215 7.6856 3.72795 7.32019 4.20826C7.15238 4.04958 6.98701 3.89818 6.82527 3.75408C6.96815 3.56377 7.11408 3.35827 7.26061 3.13818ZM6.41123 4.27636C6.57297 4.42228 6.73834 4.5755 6.90736 4.73479C6.70429 4.9786 6.54013 5.15734 6.35774 5.28017C6.22276 5.10445 6.09083 4.93544 5.96314 4.7737C6.10967 4.62292 6.25801 4.45755 6.41184 4.27636H6.41123ZM5.48525 5.23092C5.58922 5.36468 5.69805 5.50452 5.80931 5.64983C5.49984 5.84987 5.15571 6.05719 4.82982 6.26027C4.73862 6.14171 4.64802 6.02619 4.56107 5.91554C4.83954 5.74773 5.14961 5.52702 5.48584 5.23093L5.48525 5.23092ZM3.34696 6.49981C3.49774 6.42867 3.70932 6.35267 3.96955 6.23167C4.065 6.35388 4.16472 6.48157 4.26747 6.61289C3.97624 6.80076 3.69231 6.99349 3.42662 7.19353C3.29468 7.03119 3.15666 6.8719 3.01561 6.71383C3.1512 6.60986 3.26672 6.53751 3.34636 6.50042L3.34696 6.49981ZM2.51947 7.15159C2.65566 7.30298 2.787 7.4574 2.91528 7.61305C2.54865 7.93833 2.2939 8.24355 2.04706 8.6959C1.91634 8.56882 1.78258 8.44297 1.64518 8.31893C1.89446 7.85381 2.21608 7.45619 2.51947 7.15159ZM1.73575 9.32335C1.56125 9.71916 1.39952 10.1484 1.24995 10.577C1.1393 10.0013 1.20253 9.45711 1.36487 8.96531C1.48951 9.08083 1.61232 9.20113 1.73575 9.32335ZM3.73972 13.1246C3.38951 13.1082 3.03869 13.0109 2.70307 12.803C3.10617 12.6315 3.52692 12.443 3.92332 12.243C4.06134 12.5154 4.18841 12.795 4.29846 13.0832C4.11545 13.1185 3.92759 13.1331 3.73972 13.1246ZM4.92775 12.8869C4.80615 12.5664 4.66449 12.2479 4.50215 11.9323C4.80007 11.7578 5.04995 11.5979 5.27796 11.407C5.44516 11.7602 5.59168 12.0946 5.71936 12.4041C5.48528 12.5938 5.21654 12.7616 4.92836 12.8869H4.92775ZM6.23009 11.894C6.09998 11.5888 5.95346 11.2629 5.78746 10.9242C6.09511 10.5953 6.38756 10.2196 6.66967 9.8274C6.82046 10.042 6.95969 10.2475 7.08373 10.4384C6.78519 10.999 6.52559 11.5225 6.23009 11.894ZM7.44306 9.79399C7.32693 9.62132 7.20168 9.44075 7.07096 9.25531C7.29835 8.92274 7.5373 8.56887 7.76287 8.25333C7.89359 8.43086 8.02492 8.60962 8.15624 8.7908C7.88203 9.10513 7.64977 9.44866 7.44366 9.79399H7.44306ZM8.94908 8.07704C8.83781 8.15304 8.73263 8.23451 8.6323 8.32085C8.48213 8.11717 8.33013 7.90984 8.17569 7.70008C8.33073 7.50248 8.64082 7.27995 9.0123 7.03918C9.18132 7.26353 9.34123 7.49092 9.48776 7.72014C9.29929 7.84356 9.1181 7.96152 8.94908 8.07704ZM10.041 7.36081C9.89512 7.13282 9.73765 6.90663 9.57167 6.6847C9.89209 6.48284 10.2289 6.26943 10.5597 6.03841C10.6752 6.29985 10.7779 6.55096 10.8673 6.78625C10.5974 6.98811 10.3171 7.17901 10.041 7.36081ZM11.4127 6.34606C11.3233 6.11867 11.2218 5.87851 11.1105 5.62922V5.62801C11.4151 5.38784 11.6972 5.11303 11.9538 4.83092C12.0754 5.03096 12.1837 5.21761 12.2797 5.39271C12.045 5.73928 11.7453 6.05422 11.4127 6.34606ZM12.3976 4.3038C12.5484 4.1062 12.6798 3.91104 12.7977 3.71161C12.8099 4.06667 12.7509 4.39499 12.6378 4.70326C12.5612 4.57193 12.4816 4.43878 12.3976 4.3038Z" fill="#E4E4E7"/>
</svg>
