<svg width="24" height="24" viewBox="0 0 15 14" fill="none" xmlns="http://www.w3.org/2000/svg">
<path d="M9.72349 4.14199C10.2999 4.22994 10.8507 3.74482 10.9992 2.77127C11.1476 1.79772 10.4956 0.153699 10.4583 0.148971C10.4048 0.139987 9.05964 1.4795 8.91165 2.45305C8.76413 3.4266 9.14664 4.05357 9.72349 4.14199Z" fill="#E4E4E7"/>
<path d="M8.63596 4.78359C8.63596 3.69183 7.64776 2.00148 7.60757 2.00195C7.54657 2.00195 6.29736 3.69183 6.29736 4.78359C6.29736 5.87582 6.81984 6.49711 7.46666 6.49711C8.11254 6.49711 8.63549 5.87535 8.63596 4.78359Z" fill="#E4E4E7"/>
<path d="M5.04578 4.00061C4.98526 4.00061 3.73558 5.69191 3.73511 6.78272C3.73511 7.874 4.25853 8.49719 4.90535 8.49719C5.55076 8.49719 6.07465 7.874 6.07513 6.78272C6.07465 5.69191 5.08597 4.00014 5.04578 4.00061Z" fill="#E4E4E7"/>
<path d="M11.7352 3.54715C10.7598 3.68522 10.269 4.2318 10.3518 4.8096C10.434 5.38644 11.0563 5.77605 12.0322 5.63752C13.0076 5.49803 14.3599 4.1675 14.3519 4.11265C14.3471 4.07577 12.7102 3.40814 11.7352 3.54715Z" fill="#E4E4E7"/>
<path d="M9.76797 8.25509C10.8597 8.25509 12.5505 7.00493 12.5505 6.94489C12.551 6.90375 10.8597 5.91602 9.76797 5.91602C8.67621 5.91602 8.05444 6.43943 8.05444 7.08532C8.05444 7.7312 8.67621 8.25509 9.76797 8.25509Z" fill="#E4E4E7"/>
<path d="M10.4729 9.43007C10.4734 9.38893 8.78209 8.39978 7.6908 8.39978C6.59952 8.40073 5.97681 8.92414 5.97681 9.57003C5.97681 10.2164 6.59952 10.7407 7.6908 10.7407C8.78209 10.7398 10.4729 9.49012 10.4729 9.43007Z" fill="#E4E4E7"/>
<path d="M11.8603 2.64168C12.2513 3.03224 12.9449 2.97313 13.6064 2.31212C14.2669 1.65159 14.6934 0.0283719 14.6684 0.00331209C14.631 -0.0330955 12.8499 0.234524 12.1898 0.895063C11.5288 1.5556 11.4688 2.25018 11.8603 2.64168Z" fill="#E4E4E7"/>
<path d="M5.48649 8.77518C5.47656 8.77376 5.46474 8.7747 5.45576 8.77234L0.517084 13.4552C0.47453 13.511 0.509046 13.703 0.648057 13.8415C0.788486 13.9815 0.968633 14.0278 1.0249 13.9843L3.24056 11.6604L5.73094 9.05131C5.73898 9.02246 5.7073 8.93877 5.63827 8.86927C5.58436 8.81631 5.52148 8.78842 5.48649 8.77518Z" fill="#E4E4E7"/>
</svg>
