<svg width="193" height="82" viewBox="0 0 193 82" fill="none" xmlns="http://www.w3.org/2000/svg">
<g filter="url(#filter0_d_238_583)">
<path d="M25.2273 52.7082L31.4121 53V34.8116C35.699 33.0997 36.798 35.7194 36.8116 37.2432L36.0262 52.7082L42.0147 53C42.3288 42.1064 41.8838 36.3354 41.622 34.8116C45.3132 33.0997 46.6942 35.7194 46.9233 37.2432L46.3342 52.7082L52.1264 53V36.9514C51.8319 34.5846 50.2611 29.8511 46.3342 29.8511C42.4074 29.8511 40.5748 31.2128 40.1494 31.8936C36.7723 28.9368 32.9174 29.8186 31.4121 30.6292L26.4054 30.2401L25.2273 52.7082Z" fill="#E4E4E7"/>
<path fill-rule="evenodd" clip-rule="evenodd" d="M65.8704 37.7295C66.0013 35.9787 64.8887 33.0802 59.3911 35.4924L56.4459 31.8936C60.471 29.4296 69.0708 27.0498 71.2699 37.2432V52.7082L65.1832 52.2219C63.7106 53.7781 54.2861 53 54.2861 45.8997C54.2861 38.1967 61.5509 37.2756 65.8704 37.7295ZM65.6741 47.4559L65.8704 42.1064C61.06 42.1064 59.5874 43.2736 59.4893 45.6079C59.3502 48.9135 64.2997 49.0122 65.6741 47.4559Z" fill="#E4E4E7"/>
<path d="M74.1168 52.7082L75.1967 30.2401L80.498 30.6292C83.4104 29.2026 89.5495 28.5283 90.8061 37.2432V53L84.9157 52.7082L85.6029 37.4377C85.3739 35.8166 84.0322 33.0608 80.498 35.0061L80.2035 53L74.1168 52.7082Z" fill="#E4E4E7"/>
<path fill-rule="evenodd" clip-rule="evenodd" d="M103.961 52.7082H110.048C109.982 47.3262 110.146 33.8 111.324 22.7508L105.237 22.3617L104.845 31.2128C102.292 28.4894 93.4685 28.4894 93.1622 41.1337C92.8677 53.2918 101.31 54.1672 103.961 52.0274V52.7082ZM101.507 34.617C103.156 34.617 103.765 38.7021 103.765 41.3283C103.765 43.3708 103.47 47.7477 101.507 47.7477C99.5433 47.7477 99.1834 43.4681 99.2488 41.3283C99.3143 39.0912 99.8575 34.617 101.507 34.617Z" fill="#E4E4E7"/>
<path fill-rule="evenodd" clip-rule="evenodd" d="M123.694 52.7082H129.191V37.3404C128.635 33.1256 124.872 26.1161 114.269 31.7964L117.018 35.6869C119.178 34.617 123.537 33.5082 123.694 37.6322C119.898 37.0811 112.266 37.9435 112.109 45.8024C111.975 52.5137 119.963 54.1672 123.694 52.2219V52.7082ZM123.694 47.0669V42.2036C120.945 41.7822 117.312 42.2036 117.312 45.8024C117.312 48.8176 122.221 49.1094 123.694 47.0669Z" fill="#E4E4E7"/>
<path d="M137.438 51.7356H131.449L133.02 21L138.616 21.4863L138.321 33.3526L144.212 28.2948L148.531 31.9909L141.561 38.3131L150.004 49.4985L144.604 52.7082L137.732 42.9818L137.438 51.7356Z" fill="#E4E4E7"/>
<path fill-rule="evenodd" clip-rule="evenodd" d="M162.275 52.6109H167.773V37.2432C167.216 33.0284 163.453 26.0188 152.851 31.6991L155.599 35.5897C157.759 34.5198 162.118 33.4109 162.275 37.535C158.479 36.9838 150.848 37.8462 150.691 45.7052C150.557 52.4164 158.545 54.0699 162.275 52.1246V52.6109ZM162.275 46.9696V42.1064C159.526 41.6849 155.894 42.1064 155.894 45.7052C155.894 48.7204 160.803 49.0122 162.275 46.9696Z" fill="#E4E4E7"/>
</g>
<defs>
<filter id="filter0_d_238_583" x="0.227295" y="0" width="192.545" height="82" filterUnits="userSpaceOnUse" color-interpolation-filters="sRGB">
<feFlood flood-opacity="0" result="BackgroundImageFix"/>
<feColorMatrix in="SourceAlpha" type="matrix" values="0 0 0 0 0 0 0 0 0 0 0 0 0 0 0 0 0 0 127 0" result="hardAlpha"/>
<feOffset dy="4"/>
<feGaussianBlur stdDeviation="12.5"/>
<feComposite in2="hardAlpha" operator="out"/>
<feColorMatrix type="matrix" values="0 0 0 0 0 0 0 0 0 0 0 0 0 0 0 0 0 0 0.25 0"/>
<feBlend mode="normal" in2="BackgroundImageFix" result="effect1_dropShadow_238_583"/>
<feBlend mode="normal" in="SourceGraphic" in2="effect1_dropShadow_238_583" result="shape"/>
</filter>
</defs>
</svg>
